<?xml version="1.0" encoding="UTF-8"?>
<svg viewBox="0 0 125.00008 180" xmlns="http://www.w3.org/2000/svg">
 <defs>
  <linearGradient id="a" x2="0" y1="-463.78" y2="-283.78" gradientUnits="userSpaceOnUse">
   <stop stop-color="#b7b7b7" offset="0"/>
   <stop stop-color="#f2f2f2" offset="1"/>
  </linearGradient>
 </defs>
 <g transform="translate(-41.007 -283.78)">
  <path transform="scale(-1)" d="m-166.01-463.78h125v180h-125z" fill="url(#a)"/>
  <path d="m41.477 463.19c-0.57534-0.65348-0.64793-42.212-0.0756-43.281 0.56686-1.0592 3.5769-2.4022 6.4172-2.8633 2.2566-0.3663 4.0418-0.99722 2.8216-0.99722-0.23305 0-0.42373-0.23835-0.42373-0.52967s0.15179-0.52966 0.33732-0.52966 1.2004-0.83422 2.2552-1.8538 3.1458-2.4839 4.6465-3.2541 2.813-1.6203 2.9162-1.8892c0.2271-0.59181 6.0227-3.3342 9.4423-4.468 2.3307-0.77274 2.5869-0.96772 4.4886-3.4167 1.246-1.6045 1.9353-2.7996 1.8036-3.1268-0.11729-0.29132-0.731-2.5159-1.3638-4.9435-0.99288-3.809-2.034-6.8998-2.4852-7.3773-0.072-0.0762-0.3903 0.0767-0.70732 0.33978-0.48895 0.40579-0.63776 0.39447-0.98078-0.0746-0.2224-0.30415-1.0454-0.88005-1.829-1.2798-1.1027-0.56257-1.6808-1.2236-2.5588-2.9261-0.62385-1.2096-1.1343-2.4754-1.1343-2.8128s-0.22451-1.1508-0.49892-1.8076-0.921-2.9405-1.4369-5.0749c-1.0927-4.5209-2.1153-7.8636-3.0495-9.9682-0.45575-1.0267-0.66203-2.3022-0.65671-4.0608 0.0077-2.5288 0.20174-3.1546 1.9845-6.3981 0.70058-1.2746 0.73505-2.7662 0.15623-6.7591-0.25338-1.7479-0.43511-4.7862-0.40384-6.7518l0.05685-3.5738-0.90074 0.17219c-1.063 0.20321-1.0685 0.18146-0.32664-1.3056 0.42787-0.85768 0.65017-1.0289 0.87277-0.67219 0.17476 0.28005 0.20947-0.0765 0.08366-0.85949-0.16845-1.0484-0.06102-1.5071 0.49618-2.1186 0.90107-0.98898 1.4064-2.7471 1.4601-5.0803 0.02316-1.0054 0.20805-2.2645 0.41089-2.798s0.27039-1.418 0.15012-1.9656c-0.15695-0.71461-0.01158-1.2588 0.51509-1.9284 0.40356-0.51304 0.73374-1.1121 0.73374-1.3313s0.53317-1.1909 1.1848-2.1593 1.3096-2.1549 1.462-2.6365 0.69185-1.2814 1.1987-1.7772 1.196-1.373 1.5314-1.9492c1.8871-3.2413 5.0677-6.8664 8.8357-8.3699 14.895-5.9434 32.506-3.7456 48.111-0.0473 1.617 0.38322 2.9605 1.5108 4.4529 2.2417 0.61989 0.30363 1.154 0.405 1.8695 0.89053s1.514 0.88277 1.7745 0.88277c1.0449 0 6.3834 4.2292 7.2624 5.7534 1.5617 2.7079 3.4034 4.6028 4.2567 4.3797 0.41576-0.10873 0.97895-0.1121 1.2515-7e-3 0.73342 0.28144 0.60116 1.446-0.19283 1.698-0.6326 0.20077-0.56098 0.40855 0.88277 2.5613 0.86417 1.2885 1.5712 2.4753 1.5712 2.6372s0.42328 0.96493 0.94062 1.7844 0.97868 1.8368 1.0252 2.2606c0.168 1.5304 0.57594 3.1573 1.2695 5.0631 0.7796 2.1421 0.96665 5.4732 0.3424 6.0974-0.21988 0.21988-0.39977 1.0249-0.39977 1.7889s-0.17633 1.9776-0.39183 2.6969c-0.3225 1.0764-0.28682 1.5109 0.20165 2.4555 0.50953 0.98532 0.52263 1.2057 0.0926 1.558-0.2755 0.22571-0.70053 1.3468-0.94453 2.4914l-0.44363 2.081 1.1223 0.87832c0.61725 0.48307 1.2552 1.2278 1.4176 1.655s0.16418 3.783 4e-3 7.4574c-0.32981 7.5626-1.123 11.95-2.749 15.207-0.56772 1.137-1.1368 2.5013-1.2647 3.0319-0.50888 2.1114-3.7286 4.7319-6.8118 5.5443l-1.4694 0.38715-0.20186 3.0845c-0.27887 4.2614-1.7104 9.9357-3.3924 13.447-1.93 4.0288-1.8776 4.7488 0.55227 7.5952 2.2057 2.5838 4.6463 4.2845 6.5567 4.569 1.7393 0.259 5.181 2.9374 7.5115 5.8456 1.035 1.2916 3.0949 3.5969 4.5774 5.1228s2.7139 2.9561 2.7363 3.178 0.0621 0.56798 0.0883 0.76899c0.0645 0.49584 1.4513 2.2967 3.5786 4.647l1.7656 1.9507 0.10901 15.149c0.0938 13.038 0.0358 15.223-0.41616 15.675-0.77587 0.77586-123.39 0.77288-124.08-3e-3l-1.4e-5 1.7e-4z" fill="#808080"/>
 </g>
</svg>
